<svg width="75" height="75" viewBox="0 0 75 75" fill="none" xmlns="http://www.w3.org/2000/svg">
<rect width="75" height="75" fill="#E5E5E5"/>
<rect width="75" height="75" fill="#F2BB05"/>
<path d="M12.5 13.5H37.5V24.66V24.66C30.4584 24.66 24.75 30.4584 24.75 37.5V37.5H12.5V13.5Z" fill="#090D17"/>
<path d="M37.5 13.5H62.5V24.66V24.66C55.4584 24.66 49.75 30.4584 49.75 37.5V37.5H37.5V13.5Z" fill="#090D17"/>
<path d="M36.752 37.6465L36.5957 61.7677L25.3912 61.6993V61.6993C25.4352 54.9052 19.9632 49.3638 13.1691 49.3223L12.5798 49.3187L12.6563 37.4993L36.752 37.6465Z" fill="#090D17"/>
<path d="M60.752 37.6465L60.5957 61.7677L49.3912 61.6993V61.6993C49.4352 54.9052 43.9632 49.3638 37.1691 49.3223L36.5798 49.3187L36.6563 37.4993L60.752 37.6465Z" fill="#090D17"/>
</svg>
