<svg width="551" height="116" viewBox="0 0 551 116" fill="none" xmlns="http://www.w3.org/2000/svg">
<rect width="1366" height="3840" transform="translate(-410 -331)" fill="white"/>
<rect y="-1" width="553" height="118" fill="black"/>
<path d="M20.6654 64V19.2H40.0574C44.0681 19.2 47.5241 19.8613 50.4254 21.184C53.3268 22.464 55.5668 24.32 57.1454 26.752C58.7241 29.184 59.5134 32.0853 59.5134 35.456C59.5134 38.784 58.7241 41.664 57.1454 44.096C55.5668 46.4853 53.3268 48.32 50.4254 49.6C47.5241 50.88 44.0681 51.52 40.0574 51.52H26.4254L31.0334 46.976V64H20.6654ZM49.1454 64L37.9454 47.744H49.0174L60.3454 64H49.1454ZM31.0334 48.128L26.4254 43.264H39.4814C42.6814 43.264 45.0708 42.5813 46.6494 41.216C48.2281 39.808 49.0174 37.888 49.0174 35.456C49.0174 32.9813 48.2281 31.0613 46.6494 29.696C45.0708 28.3307 42.6814 27.648 39.4814 27.648H26.4254L31.0334 22.72V48.128Z" fill="white"/>
<path d="M137.104 64.768C133.563 64.768 130.278 64.192 127.248 63.04C124.262 61.888 121.659 60.2667 119.44 58.176C117.264 56.0853 115.558 53.632 114.32 50.816C113.126 48 112.528 44.928 112.528 41.6C112.528 38.272 113.126 35.2 114.32 32.384C115.558 29.568 117.286 27.1147 119.504 25.024C121.723 22.9333 124.326 21.312 127.312 20.16C130.299 19.008 133.542 18.432 137.04 18.432C140.582 18.432 143.824 19.008 146.768 20.16C149.755 21.312 152.336 22.9333 154.512 25.024C156.731 27.1147 158.459 29.568 159.696 32.384C160.934 35.1573 161.552 38.2293 161.552 41.6C161.552 44.928 160.934 48.0213 159.696 50.88C158.459 53.696 156.731 56.1493 154.512 58.24C152.336 60.288 149.755 61.888 146.768 63.04C143.824 64.192 140.603 64.768 137.104 64.768ZM137.04 55.936C139.046 55.936 140.88 55.5947 142.544 54.912C144.251 54.2293 145.744 53.248 147.024 51.968C148.304 50.688 149.286 49.1733 149.968 47.424C150.694 45.6747 151.056 43.7333 151.056 41.6C151.056 39.4667 150.694 37.5253 149.968 35.776C149.286 34.0267 148.304 32.512 147.024 31.232C145.787 29.952 144.315 28.9707 142.608 28.288C140.902 27.6053 139.046 27.264 137.04 27.264C135.035 27.264 133.179 27.6053 131.472 28.288C129.808 28.9707 128.336 29.952 127.056 31.232C125.776 32.512 124.774 34.0267 124.048 35.776C123.366 37.5253 123.024 39.4667 123.024 41.6C123.024 43.6907 123.366 45.632 124.048 47.424C124.774 49.1733 125.755 50.688 126.992 51.968C128.272 53.248 129.766 54.2293 131.472 54.912C133.179 55.5947 135.035 55.936 137.04 55.936Z" fill="white"/>
<path d="M216.56 64V19.2H238.448C244.08 19.2 248.304 20.2667 251.12 22.4C253.979 24.5333 255.408 27.3493 255.408 30.848C255.408 33.1947 254.832 35.2427 253.68 36.992C252.528 38.6987 250.95 40.0213 248.944 40.96C246.939 41.8987 244.635 42.368 242.032 42.368L243.248 39.744C246.064 39.744 248.56 40.2133 250.736 41.152C252.912 42.048 254.598 43.392 255.792 45.184C257.03 46.976 257.648 49.1733 257.648 51.776C257.648 55.616 256.134 58.624 253.104 60.8C250.075 62.9333 245.616 64 239.728 64H216.56ZM226.864 56.192H238.96C241.648 56.192 243.675 55.7653 245.04 54.912C246.448 54.016 247.152 52.608 247.152 50.688C247.152 48.8107 246.448 47.424 245.04 46.528C243.675 45.5893 241.648 45.12 238.96 45.12H226.096V37.568H237.168C239.686 37.568 241.606 37.1413 242.928 36.288C244.294 35.392 244.976 34.048 244.976 32.256C244.976 30.5067 244.294 29.2053 242.928 28.352C241.606 27.456 239.686 27.008 237.168 27.008H226.864V56.192Z" fill="white"/>
<path d="M321.851 37.248H343.419V45.312H321.851V37.248ZM322.619 55.68H347.003V64H312.315V19.2H346.171V27.52H322.619V55.68Z" fill="white"/>
<path d="M402.466 64V19.2H421.858C425.869 19.2 429.325 19.8613 432.226 21.184C435.128 22.464 437.368 24.32 438.946 26.752C440.525 29.184 441.314 32.0853 441.314 35.456C441.314 38.784 440.525 41.664 438.946 44.096C437.368 46.4853 435.128 48.32 432.226 49.6C429.325 50.88 425.869 51.52 421.858 51.52H408.226L412.834 46.976V64H402.466ZM430.946 64L419.746 47.744H430.818L442.146 64H430.946ZM412.834 48.128L408.226 43.264H421.282C424.482 43.264 426.872 42.5813 428.45 41.216C430.029 39.808 430.818 37.888 430.818 35.456C430.818 32.9813 430.029 31.0613 428.45 29.696C426.872 28.3307 424.482 27.648 421.282 27.648H408.226L412.834 22.72V48.128Z" fill="white"/>
<path d="M506.09 64V27.648H491.754V19.2H530.794V27.648H516.458V64H506.09Z" fill="white"/>
<path d="M75.7754 95V72.6H85.9514C88.3834 72.6 90.5274 73.0693 92.3834 74.008C94.2394 74.9253 95.6901 76.216 96.7354 77.88C97.7807 79.544 98.3034 81.5173 98.3034 83.8C98.3034 86.0613 97.7807 88.0347 96.7354 89.72C95.6901 91.384 94.2394 92.6853 92.3834 93.624C90.5274 94.5413 88.3834 95 85.9514 95H75.7754ZM80.9594 90.744H85.6954C87.1887 90.744 88.4794 90.4667 89.5674 89.912C90.6767 89.336 91.5301 88.5253 92.1274 87.48C92.7461 86.4347 93.0554 85.208 93.0554 83.8C93.0554 82.3707 92.7461 81.144 92.1274 80.12C91.5301 79.0747 90.6767 78.2747 89.5674 77.72C88.4794 77.144 87.1887 76.856 85.6954 76.856H80.9594V90.744Z" fill="white"/>
<path d="M185.127 95V72.6H190.311V95H185.127Z" fill="white"/>
<path d="M272.383 95L282.015 81.72V85.496L272.799 72.6H278.687L285.055 81.592L282.591 81.624L288.863 72.6H294.495L285.343 85.272V81.56L295.039 95H289.055L282.463 85.496H284.831L278.335 95H272.383Z" fill="white"/>
<path d="M373.263 95.384C371.492 95.384 369.849 95.096 368.335 94.52C366.841 93.944 365.54 93.1333 364.431 92.088C363.343 91.0427 362.489 89.816 361.871 88.408C361.273 87 360.975 85.464 360.975 83.8C360.975 82.136 361.273 80.6 361.871 79.192C362.489 77.784 363.353 76.5573 364.463 75.512C365.572 74.4667 366.873 73.656 368.367 73.08C369.86 72.504 371.481 72.216 373.231 72.216C375.001 72.216 376.623 72.504 378.095 73.08C379.588 73.656 380.879 74.4667 381.967 75.512C383.076 76.5573 383.94 77.784 384.559 79.192C385.177 80.5787 385.487 82.1147 385.487 83.8C385.487 85.464 385.177 87.0107 384.559 88.44C383.94 89.848 383.076 91.0747 381.967 92.12C380.879 93.144 379.588 93.944 378.095 94.52C376.623 95.096 375.012 95.384 373.263 95.384ZM373.231 90.968C374.233 90.968 375.151 90.7973 375.983 90.456C376.836 90.1147 377.583 89.624 378.223 88.984C378.863 88.344 379.353 87.5867 379.695 86.712C380.057 85.8373 380.239 84.8667 380.239 83.8C380.239 82.7333 380.057 81.7627 379.695 80.888C379.353 80.0133 378.863 79.256 378.223 78.616C377.604 77.976 376.868 77.4853 376.015 77.144C375.161 76.8027 374.233 76.632 373.231 76.632C372.228 76.632 371.3 76.8027 370.447 77.144C369.615 77.4853 368.879 77.976 368.239 78.616C367.599 79.256 367.097 80.0133 366.735 80.888C366.393 81.7627 366.223 82.7333 366.223 83.8C366.223 84.8453 366.393 85.816 366.735 86.712C367.097 87.5867 367.588 88.344 368.207 88.984C368.847 89.624 369.593 90.1147 370.447 90.456C371.3 90.7973 372.228 90.968 373.231 90.968Z" fill="white"/>
<path d="M457.873 95V72.6H462.161L475.377 88.728H473.297V72.6H478.417V95H474.161L460.913 78.872H462.993V95H457.873Z" fill="white"/>
</svg>
