<svg width="200" height="98" viewBox="0 0 200 98" fill="none" xmlns="http://www.w3.org/2000/svg">
<g clip-path="url(#clip0_149_218)">
<rect width="1400" height="7478" transform="translate(-600 -173)" fill="#F4F4F4"/>
<rect x="-600" y="-173" width="1400" height="700" fill="#161615"/>
<path d="M113.648 50.04C113.754 50.04 113.808 50.2 113.808 50.52C113.808 50.84 113.754 51 113.648 51C111.834 51 110.394 50.9733 109.328 50.92L103.408 50.84L97.4078 50.92C96.3945 50.9733 95.0078 51 93.2478 51C93.0878 51 93.0078 50.84 93.0078 50.52C93.0078 50.2 93.0878 50.04 93.2478 50.04C95.4878 50.04 97.0078 49.7733 97.8078 49.24C98.6078 48.7067 99.0078 47.5867 99.0078 45.88L98.9278 44.52L97.2478 11.8L80.7678 50.44C80.6611 50.6533 80.4478 50.76 80.1278 50.76C79.8078 50.76 79.5945 50.6533 79.4878 50.44L59.2478 11.96L58.6078 40.84C58.5545 43.72 59.1145 45.9867 60.2878 47.64C61.5145 49.24 63.2211 50.04 65.4078 50.04C65.5678 50.04 65.6478 50.2 65.6478 50.52C65.6478 50.84 65.5678 51 65.4078 51C63.9678 51 62.8478 50.9733 62.0478 50.92L57.6478 50.84L52.6078 50.92C51.7545 50.9733 50.6078 51 49.1678 51C49.0078 51 48.9278 50.84 48.9278 50.52C48.9278 50.2 49.0078 50.04 49.1678 50.04C51.3545 50.04 53.0878 49.2133 54.3678 47.56C55.6478 45.9067 56.3145 43.6667 56.3678 40.84L57.0878 7.72L57.0078 7.64C55.9411 5.66666 54.8211 4.22666 53.6478 3.32C52.5278 2.41333 51.2211 1.96 49.7278 1.96C49.5678 1.96 49.4878 1.8 49.4878 1.48C49.4878 1.16 49.5678 1 49.7278 1L53.4878 1.08C54.2345 1.13333 55.1945 1.16 56.3678 1.16L60.6078 1.08C61.0878 1.02667 61.7011 1 62.4478 1C63.1411 1 63.6745 1.24 64.0478 1.72C64.4211 2.2 65.1145 3.34666 66.1278 5.16L83.5678 37.88L98.7678 3C99.0878 2.25333 99.4078 1.74667 99.7278 1.48C100.101 1.16 100.581 1 101.168 1C101.648 1 102.181 1.02667 102.768 1.08C103.408 1.13333 104.128 1.16 104.928 1.16L109.648 1.08C110.394 1.02667 111.461 1 112.848 1C113.008 1 113.088 1.16 113.088 1.48C113.088 1.8 113.008 1.96 112.848 1.96C110.341 1.96 108.528 2.46666 107.408 3.48C106.288 4.49333 105.781 6.06666 105.888 8.2L107.808 44.52C107.914 46.1733 108.101 47.3733 108.368 48.12C108.688 48.8667 109.221 49.3733 109.968 49.64C110.768 49.9067 111.994 50.04 113.648 50.04ZM150.162 50.04C150.322 50.04 150.402 50.2 150.402 50.52C150.402 50.84 150.322 51 150.162 51C148.295 51 146.802 50.9733 145.682 50.92L139.522 50.84L132.322 50.92C131.362 50.9733 130.055 51 128.402 51C128.242 51 128.162 50.84 128.162 50.52C128.162 50.2 128.242 50.04 128.402 50.04C130.375 50.04 131.815 49.9067 132.722 49.64C133.628 49.3733 134.242 48.8667 134.562 48.12C134.882 47.3733 135.042 46.1733 135.042 44.52V26.12H109.202V44.52C109.202 46.12 109.362 47.32 109.682 48.12C110.002 48.8667 110.615 49.3733 111.522 49.64C112.428 49.9067 113.868 50.04 115.842 50.04C115.948 50.04 116.002 50.2 116.002 50.52C116.002 50.84 115.948 51 115.842 51C113.975 51 112.482 50.9733 111.362 50.92L104.402 50.84L98.4016 50.92C97.3349 50.9733 95.8682 51 94.0016 51C93.8949 51 93.8416 50.84 93.8416 50.52C93.8416 50.2 93.8949 50.04 94.0016 50.04C95.8682 50.04 97.2282 49.9067 98.0816 49.64C98.9349 49.3733 99.5216 48.8667 99.8416 48.12C100.162 47.32 100.322 46.12 100.322 44.52V7.48C100.322 5.88 100.162 4.70667 99.8416 3.96C99.5216 3.21333 98.9349 2.70666 98.0816 2.44C97.2816 2.12 95.9749 1.96 94.1616 1.96C94.0016 1.96 93.9216 1.8 93.9216 1.48C93.9216 1.16 94.0016 1 94.1616 1L98.4816 1.08C100.935 1.18666 102.908 1.24 104.402 1.24C106.428 1.24 108.775 1.18666 111.442 1.08L115.842 1C115.948 1 116.002 1.16 116.002 1.48C116.002 1.8 115.948 1.96 115.842 1.96C113.922 1.96 112.508 2.12 111.602 2.44C110.695 2.76 110.055 3.32 109.682 4.12C109.362 4.86666 109.202 6.04 109.202 7.64V23.88H135.042V7.64C135.042 6.04 134.882 4.86666 134.562 4.12C134.242 3.32 133.628 2.76 132.722 2.44C131.815 2.12 130.375 1.96 128.402 1.96C128.242 1.96 128.162 1.8 128.162 1.48C128.162 1.16 128.242 1 128.402 1L132.322 1.08C134.988 1.18666 137.388 1.24 139.522 1.24C140.962 1.24 143.015 1.18666 145.682 1.08L150.162 1C150.322 1 150.402 1.16 150.402 1.48C150.402 1.8 150.322 1.96 150.162 1.96C148.348 1.96 146.988 2.12 146.082 2.44C145.228 2.70666 144.642 3.21333 144.322 3.96C144.055 4.70667 143.922 5.88 143.922 7.48V44.52C143.922 46.12 144.055 47.32 144.322 48.12C144.642 48.8667 145.228 49.3733 146.082 49.64C146.935 49.9067 148.295 50.04 150.162 50.04Z" fill="#C3874D"/>
<path d="M193.273 15C164.605 77.7582 126.114 91.5409 100 96.56" stroke="#C3874D" stroke-width="2"/>
<path d="M200.004 20.4849C188.026 22.2894 166.54 27.0082 176.422 31.4473C186.304 35.8864 196.261 25.9886 200.004 20.4849Z" fill="#C3874D"/>
<path d="M176.812 31.0668C175.604 30.5244 174.929 29.9994 174.637 29.5141C174.356 29.046 174.434 28.6248 174.732 28.2232C175.05 27.7938 175.667 27.3231 176.606 26.8235C177.537 26.3284 178.727 25.8355 180.111 25.3538C185.397 23.5148 193.171 21.9571 199.063 21.0346C197.151 23.6754 193.997 27.0677 190.239 29.4047C188.214 30.6643 186.039 31.6018 183.798 31.9684C181.564 32.3339 179.205 32.1418 176.812 31.0668Z" stroke="#C3874D" stroke-opacity="0.25"/>
<path d="M193.707 36.7749C181.729 38.5794 160.243 43.2982 170.125 47.7373C180.007 52.1764 189.964 42.2787 193.707 36.7749Z" fill="#C3874D"/>
<path d="M170.515 47.3568C169.308 46.8145 168.632 46.2894 168.34 45.8042C168.059 45.336 168.137 44.9149 168.435 44.5133C168.753 44.0838 169.37 43.6131 170.31 43.1135C171.24 42.6185 172.43 42.1255 173.815 41.6438C179.1 39.8049 186.875 38.2472 192.766 37.3247C190.854 39.9654 187.7 43.3577 183.942 45.6947C181.917 46.9543 179.742 47.8918 177.502 48.2584C175.268 48.6239 172.908 48.4319 170.515 47.3568Z" stroke="#C3874D" stroke-opacity="0.25"/>
<path d="M182.608 54.3317C170.214 55.0764 147.5 57.8732 155.804 63.1031C164.107 68.3329 177.133 59.4346 182.608 54.3317Z" fill="#C3874D"/>
<path d="M156.289 62.8138C155.282 62.1797 154.79 61.6091 154.661 61.1081C154.535 60.6218 154.746 60.1886 155.212 59.7812C155.696 59.3586 156.487 58.9367 157.578 58.5245C158.662 58.1143 159.999 57.7304 161.519 57.3752C167.296 56.0256 175.411 55.1635 181.506 54.7606C178.752 57.2141 174.508 60.317 170.004 62.315C167.581 63.3901 165.129 64.1245 162.815 64.2915C160.52 64.457 158.283 64.0701 156.289 62.8138Z" stroke="#C3874D" stroke-opacity="0.25"/>
<path d="M165.194 69.7945C152.8 70.5392 130.086 73.3361 138.39 78.566C146.693 83.7958 159.719 74.8975 165.194 69.7945Z" fill="#C3874D"/>
<path d="M138.875 78.2767C137.868 77.6426 137.376 77.072 137.247 76.5709C137.121 76.0846 137.332 75.6515 137.798 75.2441C138.282 74.8215 139.073 74.3996 140.164 73.9874C141.248 73.5772 142.585 73.1932 144.105 72.8381C149.882 71.4885 157.997 70.6264 164.092 70.2235C161.338 72.677 157.094 75.7799 152.59 77.7779C150.167 78.853 147.715 79.5874 145.401 79.7544C143.106 79.9199 140.869 79.533 138.875 78.2767Z" stroke="#C3874D" stroke-opacity="0.25"/>
<path d="M143.711 84.9282C131.233 84.8966 108.032 86.2605 115.054 91.9687C122.075 97.6768 137.084 89.6534 143.711 84.9282Z" fill="#C3874D"/>
<path d="M115.587 91.7481C114.742 91.0613 114.389 90.4686 114.378 89.9635C114.367 89.4692 114.681 89.0358 115.269 88.6406C116.491 87.8187 118.923 87.1425 122.148 86.6199C128.169 85.6441 136.375 85.2919 142.506 85.2679C139.192 87.5397 134.232 90.3707 129.268 92.0831C126.596 93.0048 123.986 93.5806 121.658 93.6023C119.364 93.6238 117.26 93.1079 115.587 91.7481Z" stroke="#C3874D" stroke-opacity="0.25"/>
<path d="M6.7269 15C35.3946 77.7582 73.886 91.5409 100 96.56" stroke="#C3874D" stroke-width="2"/>
<path d="M-0.000178631 20.4849C11.9781 22.2894 33.4642 27.0082 23.582 31.4473C13.6997 35.8864 3.74293 25.9886 -0.000178631 20.4849Z" fill="#C3874D"/>
<path d="M23.192 31.0668C24.3995 30.5244 25.0754 29.9994 25.3669 29.5141C25.6482 29.046 25.5699 28.6248 25.2721 28.2232C24.9537 27.7938 24.3367 27.3231 23.3974 26.8235C22.4667 26.3284 21.2769 25.8355 19.8925 25.3538C14.6073 23.5148 6.83253 21.9571 0.940629 21.0346C2.85331 23.6754 6.00715 27.0677 9.76455 29.4047C11.7898 30.6643 13.9648 31.6018 16.2054 31.9684C18.4395 32.3339 20.7989 32.1418 23.192 31.0668Z" stroke="#C3874D" stroke-opacity="0.25"/>
<path d="M6.2967 36.7749C18.275 38.5794 39.7611 43.2982 29.8788 47.7373C19.9966 52.1764 10.0398 42.2787 6.2967 36.7749Z" fill="#C3874D"/>
<path d="M29.4889 47.3568C30.6963 46.8145 31.3723 46.2894 31.6638 45.8042C31.945 45.336 31.8667 44.9149 31.5689 44.5133C31.2505 44.0838 30.6335 43.6131 29.6943 43.1135C28.7635 42.6185 27.5737 42.1255 26.1894 41.6438C20.9042 39.8049 13.1294 38.2472 7.2375 37.3247C9.15018 39.9654 12.304 43.3577 16.0614 45.6947C18.0867 46.9543 20.2617 47.8918 22.5023 48.2584C24.7364 48.6239 27.0957 48.4319 29.4889 47.3568Z" stroke="#C3874D" stroke-opacity="0.25"/>
<path d="M17.3958 54.3317C29.7903 55.0764 52.5036 57.8732 44.2001 63.1031C35.8967 68.3329 22.8708 59.4346 17.3958 54.3317Z" fill="#C3874D"/>
<path d="M43.7151 62.8138C44.7219 62.1797 45.2136 61.6091 45.343 61.1081C45.4686 60.6218 45.2579 60.1886 44.7916 59.7812C44.3078 59.3586 43.5165 58.9367 42.4263 58.5245C41.3415 58.1143 40.0053 57.7304 38.4852 57.3752C32.7082 56.0256 24.5926 55.1635 18.4982 54.7606C21.2516 57.2141 25.4957 60.317 29.9996 62.315C32.4231 63.3901 34.8747 64.1245 37.1887 64.2915C39.4837 64.457 41.7205 64.0701 43.7151 62.8138Z" stroke="#C3874D" stroke-opacity="0.25"/>
<path d="M34.8098 69.7945C47.2044 70.5392 69.9177 73.3361 61.6142 78.566C53.3108 83.7958 40.2848 74.8975 34.8098 69.7945Z" fill="#C3874D"/>
<path d="M61.1291 78.2767C62.136 77.6426 62.6276 77.072 62.757 76.5709C62.8826 76.0846 62.672 75.6515 62.2056 75.2441C61.7219 74.8215 60.9305 74.3996 59.8403 73.9874C58.7556 73.5772 57.4194 73.1932 55.8993 72.8381C50.1222 71.4885 42.0067 70.6264 35.9123 70.2235C38.6657 72.677 42.9098 75.7799 47.4137 77.7779C49.8371 78.853 52.2888 79.5874 54.6028 79.7544C56.8978 79.9199 59.1346 79.533 61.1291 78.2767Z" stroke="#C3874D" stroke-opacity="0.25"/>
<path d="M56.2928 84.9282C68.771 84.8966 91.9719 86.2605 84.9504 91.9687C77.9288 97.6768 62.9197 89.6534 56.2928 84.9282Z" fill="#C3874D"/>
<path d="M84.4166 91.7481C85.2615 91.0613 85.6148 90.4686 85.6262 89.9635C85.6374 89.4692 85.3226 89.0358 84.7351 88.6406C83.5133 87.8187 81.0806 87.1425 77.8562 86.6199C71.8347 85.6441 63.6291 85.2919 57.4977 85.2679C60.8123 87.5397 65.772 90.3707 70.7359 92.0831C73.4079 93.0048 76.0181 93.5806 78.3457 93.6023C80.6399 93.6238 82.7439 93.1079 84.4166 91.7481Z" stroke="#C3874D" stroke-opacity="0.25"/>
</g>
<defs>
<clipPath id="clip0_149_218">
<rect width="1400" height="7478" fill="white" transform="translate(-600 -173)"/>
</clipPath>
</defs>
</svg>
